# xmcd CD database file
#
# Track frame offsets:
#	150
#	19987
#	39375
#
# Disc length: 790 seconds
#
# Revision: 1
# Processed by: cddbd v1.5.1PL0 Copyright (c) Steve Scherf et al.
# Submitted via: CDex 1.51
#
DISCID=1c031403
DTITLE=爆風スランプ - 爆風スランプ/リゾ・ラバ
DYEAR=1989
DGENRE=
TTITLE0=リゾ・ラバ
TTITLE1=満月電車
TTITLE2=リゾ・ラバ(オリジナル・カラオケ)
EXTD=YEAR: 1989
EXTT0=
EXTT1=
EXTT2=
PLAYORDER=
